<?xml version="1.0" encoding="UTF-8" standalone="no"?>
<svg
   xmlns:dc="http://purl.org/dc/elements/1.1/"
   xmlns:cc="http://creativecommons.org/ns#"
   xmlns:rdf="http://www.w3.org/1999/02/22-rdf-syntax-ns#"
   xmlns:svg="http://www.w3.org/2000/svg"
   xmlns="http://www.w3.org/2000/svg"
   xmlns:sodipodi="http://sodipodi.sourceforge.net/DTD/sodipodi-0.dtd"
   xmlns:inkscape="http://www.inkscape.org/namespaces/inkscape"
   inkscape:version="1.0beta2 (2b71d25, 2019-12-03)"
   sodipodi:docname="lewiatan-logo.svg"
   id="svg22"
   version="1.1"
   width="400"
   height="300">
  <metadata
     id="metadata28">
    <rdf:RDF>
      <cc:Work
         rdf:about="">
        <dc:format>image/svg+xml</dc:format>
        <dc:type
           rdf:resource="http://purl.org/dc/dcmitype/StillImage" />
        <dc:title></dc:title>
      </cc:Work>
    </rdf:RDF>
  </metadata>
  <defs
     id="defs26">
    <clipPath
       id="clipPath16">
      <path
         d="m0,44.665,243.5,0v-44.665h-243.5v44.665z"
         id="path138" />
    </clipPath>
    <clipPath
       id="clipPath16-0"
       clipPathUnits="userSpaceOnUse">
      <path
         d="m0,73.644,102.88,0v-73.644h-102.88v73.644z"
         id="path166" />
    </clipPath>
  </defs>
  <sodipodi:namedview
     inkscape:current-layer="svg22"
     inkscape:window-maximized="0"
     inkscape:window-y="23"
     inkscape:window-x="0"
     inkscape:cy="138.8255"
     inkscape:cx="119.76884"
     inkscape:zoom="1.2782552"
     showgrid="false"
     id="namedview24"
     inkscape:window-height="667"
     inkscape:window-width="1251"
     inkscape:pageshadow="2"
     inkscape:pageopacity="0"
     guidetolerance="10"
     gridtolerance="10"
     objecttolerance="10"
     borderopacity="1"
     inkscape:document-rotation="0"
     bordercolor="#666666"
     pagecolor="#ffffff" />
  <path
     id="path10"
     d="M-1-1h402v302H-1z"
     fill="none" />
  <path
     inkscape:connector-curvature="0"
     id="path143"
     d="m 185.35585,175.81482 c -0.16907,-0.005 -0.35606,0.0263 -0.56088,0.12665 l -7.03802,3.11199 c -0.63907,0.28224 -0.7816,0.60648 -0.74177,1.30269 0.14257,2.51055 -0.0107,5.35042 -0.43424,8.06974 -0.64335,4.13244 -1.93888,9.57682 -5.04796,13.40674 -1.07834,-0.97267 -1.84258,-2.1451 -2.0626,-3.69096 -0.19901,-1.39533 0.034,-3.00054 0.5247,-4.84891 l 3.07579,-11.63392 c 0.0753,-0.32206 -0.17078,-0.70703 -0.56086,-0.70565 -0.69189,0.001 -5.61386,0 -6.13366,0 -0.34449,0 -0.68678,0.27139 -0.77803,0.61517 -1.76124,6.67324 -3.52595,13.35693 -5.29589,20.02845 -2.83059,-1.36174 -3.47325,-3.76391 -2.5689,-7.21924 l 3.365,-12.70096 c 0.0955,-0.36544 -0.19222,-0.72661 -0.56103,-0.7237 h -5.97038 c -0.33797,0 -0.86122,0.33507 -0.9589,0.70564 -1.22162,4.61374 -2.45774,9.10148 -3.63665,13.71475 -0.50661,1.98154 -0.94517,4.12588 -0.47042,5.97038 0.38502,1.49955 1.36279,2.72554 2.60538,3.72716 1.62912,1.31426 3.1069,2.15887 5.13841,2.93106 0.59413,0.20698 0.84819,0.12809 0.97701,0.0361 l 6.20545,-4.30583 c 1.55096,1.38663 2.9354,2.60973 4.86698,4.25187 0.24171,0.22942 0.45594,0.14764 0.66941,0.0543 3.67937,-1.73982 6.39477,-4.5167 8.91967,-7.74378 2.01485,-2.57644 3.61281,-5.42731 4.79391,-8.34128 1.25858,-3.1062 2.0322,-6.7329 2.35209,-9.75225 0.20264,-1.91862 0.3083,-3.83425 0.18093,-5.68119 -0.0174,-0.2745 -0.34159,-0.68875 -0.8453,-0.70548 z m -65.78307,5.13839 c -0.43496,0 -0.88005,0.36114 -0.99514,0.7961 l -6.65822,25.11302 c -0.12059,0.4348 0.12113,0.79608 0.55606,0.79608 h 12.32115 c 0.43496,0 0.87935,-0.36113 0.99514,-0.79608 l 1.04939,-3.98046 c 0.1158,-0.43495 -0.14474,-0.77802 -0.57897,-0.77802 h -5.59069 l 5.39141,-20.35443 c 0.11504,-0.43495 -0.14403,-0.79609 -0.57898,-0.79609 h -5.91653 z m 17.11564,0 c -0.43423,0 -0.88004,0.36114 -0.99515,0.7961 l -6.68078,25.11302 c -0.11505,0.43495 0.14475,0.79608 0.57899,0.79608 h 12.8098 c 0.4348,0 0.87946,-0.36128 0.99526,-0.79608 l 1.06762,-3.98046 c 0.11505,-0.43495 -0.14401,-0.77802 -0.57897,-0.77802 h -6.11514 l 1.41125,-5.33745 h 5.24668 c 0.43495,0 0.88004,-0.34304 0.99513,-0.77804 l 1.01321,-3.87188 c 0.11505,-0.43495 -0.12593,-0.79609 -0.56089,-0.79609 h -5.24694 l 1.28462,-4.81272 h 6.11513 c 0.43568,0 0.88005,-0.34304 0.99515,-0.77804 l 1.04938,-3.98043 c 0.1158,-0.43497 -0.14402,-0.7961 -0.57897,-0.7961 h -12.80981 z m 54.22443,0 c -0.43495,0 -0.8786,0.36114 -0.99515,0.7961 l -6.68135,25.13097 c -0.11581,0.43422 0.14473,0.77801 0.57896,0.77801 h 5.91655 c 0.43495,0 0.87934,-0.34375 0.99513,-0.77801 l 6.67558,-25.13097 c 0.1158,-0.43496 -0.14402,-0.7961 -0.57897,-0.7961 h -5.91654 z m 18.88903,0 c -0.36765,0 -0.74542,0.25693 -0.92276,0.59704 l -14.81827,25.07654 c -0.2439,0.41253 -0.14186,0.86123 0.23521,0.99515 0.0738,0.026 0.15486,0.0361 0.23521,0.0361 h 5.66306 c 0.38646,0 0.79539,-0.28298 0.9589,-0.65135 l 2.65969,-4.93935 h 6.4046 v 5.01171 c 5.9e-4,0.35102 0.26706,0.57899 0.61517,0.57899 h 6.20603 c 0.43424,0 0.87934,-0.36114 0.99515,-0.79609 0.0283,-0.10641 0.0326,-0.19613 0.018,-0.28949 L 216.56972,181.496 c -0.0174,-0.3329 -0.27789,-0.54279 -0.6137,-0.54279 h -6.16956 z m 15.39725,0 c -0.44001,0 -0.88583,0.36118 -1.00163,0.7961 l -1.0675,3.98044 c -0.11505,0.43496 0.14401,0.77804 0.57897,0.77804 h 3.74527 l -5.39171,20.37294 c -0.12157,0.43366 0.12159,0.77756 0.55583,0.77756 h 5.93449 c 0.43495,0 0.88004,-0.34375 0.99514,-0.77801 l 5.39169,-20.37295 h 3.74527 c 0.43569,0 0.88005,-0.34305 0.99515,-0.77804 l 1.06751,-3.98045 c 0.11505,-0.43495 -0.14402,-0.79608 -0.57898,-0.79608 h -14.98097 z m 24.22661,0 c -0.36692,0 -0.74543,0.25693 -0.92277,0.59704 l -14.82175,25.07712 c -0.24317,0.41253 -0.14184,0.86123 0.23521,0.99515 0.0738,0.026 0.15488,0.0361 0.23521,0.0361 h 5.66308 c 0.38718,0 0.77727,-0.28296 0.94082,-0.65135 l 2.67777,-4.93933 h 6.38665 l 0.0174,5.01159 c 5.8e-4,0.35101 0.26705,0.57898 0.61516,0.57898 h 6.20603 c 0.5645,0 1.08777,-0.58406 1.01321,-1.08557 l -1.46478,-25.07655 c -0.0174,-0.3329 -0.2837,-0.5428 -0.61372,-0.5428 h -6.16955 z m 18.94347,0 c -0.43496,0 -0.88005,0.36114 -0.99514,0.7961 l -6.67616,25.13097 c -0.1158,0.43422 0.14402,0.77801 0.57897,0.77801 h 4.97559 c 0.43569,0 0.88004,-0.34375 0.99515,-0.77801 l 3.54622,-13.40674 4.52323,13.80507 c 0.081,0.24823 0.31048,0.37922 0.57898,0.37995 h 4.52324 c 0.43495,0 0.87934,-0.34377 0.99513,-0.77803 l 6.66979,-25.13095 c 0.11505,-0.43496 -0.14402,-0.7961 -0.57897,-0.7961 h -5.01172 c -0.43423,0 -0.88004,0.36114 -0.99514,0.7961 l -3.25673,12.24877 -4.1252,-12.66506 c -0.081,-0.2481 -0.31265,-0.37981 -0.57897,-0.37981 h -5.17459 z m -58.11746,9.2636 -0.018,6.87532 h -3.72716 l 3.74528,-6.87532 z m 39.62385,0 -0.018,6.87532 h -3.72716 l 3.74528,-6.87532 z"
     style="fill:#0090d3;fill-rule:evenodd;stroke-width:0.578975" />
  <g
     clip-path="url(#clipPath16-0)"
     id="g187"
     transform="matrix(1.018948,0,0,-1.018948,147.58707,167.99089)">
    <g
       transform="translate(81.6597,7.1836)"
       id="g173">
      <path
         style="fill:#0090d3;fill-rule:nonzero"
         d="m 0,0 c -1.063,-4.048 -5.208,-7.184 -9.382,-7.184 l -46.253,0.003 c -3.188,0 -5.859,1.764 -7.3,4.269 -6.183,2.036 -11.268,5.258 -14.616,9.634 -11.107,14.516 1.08,36.211 27.215,48.445 l 0.146,0.067 1.044,3.972 c 1.082,4.112 5.051,7.253 9.322,7.253 h 27.328 c 2.995,0 5.585,-1.597 7.085,-3.919 C 4.335,61.031 12.421,57.161 17.108,51.036 26.207,39.146 19.673,22.44 2.65,10.062 Z"
         id="path171"
         inkscape:connector-curvature="0" />
    </g>
    <g
       transform="translate(81.6597,7.1831)"
       id="g177">
      <path
         style="fill:#0090d3;fill-rule:nonzero"
         d="m 0,0 c -1.063,-4.048 -5.208,-7.183 -9.382,-7.183 l -46.253,0.003 c -5.567,0 -9.561,5.376 -8.169,10.695 l 14.658,55.691 c 1.082,4.112 5.051,7.254 9.321,7.254 h 27.329 c 5.49,0 9.621,-5.368 8.167,-10.73 l -10.041,-38.154 7.843,0.001 c 5.605,0.085 9.763,-5.268 8.355,-10.619 z"
         id="path175"
         inkscape:connector-curvature="0" />
    </g>
    <g
       transform="translate(77.2285,8.3491)"
       id="g181">
      <path
         style="fill:#ffffff;fill-rule:nonzero"
         d="m 0,0 c -0.542,-2.064 -2.845,-3.757 -4.951,-3.757 -3.435,0.002 -46.253,0.019 -46.253,0.003 -2.601,0 -4.401,2.424 -3.738,4.955 l 14.659,55.673 c 0.559,2.129 2.673,3.828 4.889,3.828 h 27.329 c 2.594,0 4.422,-2.424 3.736,-4.954 L -15.88,11.835 -2.024,11.836 c 2.62,0.04 4.523,-2.328 3.852,-4.878 z"
         id="path179"
         inkscape:connector-curvature="0" />
    </g>
    <g
       transform="translate(75.0869,8.9043)"
       id="g185">
      <path
         style="fill:#ffe62f;fill-rule:evenodd"
         d="M 0,0 1.828,6.966 C 2.131,8.122 1.376,9.088 0.144,9.07 L -16.61,9.069 -4.328,55.755 c 0.33,1.19 -0.401,2.172 -1.595,2.172 h -27.329 c -1.195,0 -2.434,-0.976 -2.748,-2.172 L -50.659,0.083 c -0.315,-1.196 0.403,-2.172 1.596,-2.172 15.418,-0.009 30.836,-0.003 46.254,-0.003 1.236,0 2.347,0.99 2.809,2.092"
         id="path183"
         inkscape:connector-curvature="0" />
    </g>
  </g>
</svg>
