<?xml version="1.0" encoding="UTF-8" standalone="no"?>
<svg
   height="300"
   width="400"
   version="1.1"
   id="svg8"
   sodipodi:docname="delikatesy-centrum-logo.svg"
   inkscape:version="1.1 (c4e8f9e, 2021-05-24)"
   xmlns:inkscape="http://www.inkscape.org/namespaces/inkscape"
   xmlns:sodipodi="http://sodipodi.sourceforge.net/DTD/sodipodi-0.dtd"
   xmlns="http://www.w3.org/2000/svg"
   xmlns:svg="http://www.w3.org/2000/svg">
  <defs
     id="defs12" />
  <sodipodi:namedview
     id="namedview10"
     pagecolor="#ffffff"
     bordercolor="#666666"
     borderopacity="1.0"
     inkscape:pageshadow="2"
     inkscape:pageopacity="0.0"
     inkscape:pagecheckerboard="0"
     showgrid="false"
     inkscape:zoom="1.8533333"
     inkscape:cx="110.61151"
     inkscape:cy="150"
     inkscape:window-width="1440"
     inkscape:window-height="872"
     inkscape:window-x="0"
     inkscape:window-y="28"
     inkscape:window-maximized="0"
     inkscape:current-layer="svg8" />
  <path
     fill="none"
     d="M-1-1h402v302H-1z"
     id="path2" />
  <g
     data-name="Warstwa 1"
     id="g87"
     transform="matrix(2.3901515,0,0,2.3901515,97.952482,116.41837)">
    <path
       fill="#059347"
       d="m 32.07,0 h 8.54 V 28.1 H 32.07 Z M 44.03,0 H 56.44 V 28.1 H 44.03 Z M 73.3,0 h 8.15 V 28.1 H 73.3 Z"
       id="path73" />
    <path
       fill="#08793d"
       d="M 56.45,0 H 73.3 V 28.1 H 56.45 Z"
       id="path75" />
    <path
       fill="#2fb34a"
       d="m 40.62,0 h 3.41 v 28.1 h -3.41 z m 40.82,0 h 3.95 v 28.1 h -3.95 z"
       id="path77" />
    <path
       fill="#ec1c24"
       d="M 0,0 H 32.07 V 28.1 H 0 Z"
       id="path79" />
    <path
       d="m 73.43,20.42 a 0.1,0.1 0 0 0 -0.07,0 0.14,0.14 0 0 0 -0.07,0.12 0.86,0.86 0 0 0 0.07,0.36 c 0,0.08 0.07,0.18 0.12,0.29 a 3.27,3.27 0 0 0 0.68,0.92 3.11,3.11 0 0 0 1.13,0.67 4.43,4.43 0 0 0 2.41,0.09 3.29,3.29 0 0 0 2.23,-1.51 4.08,4.08 0 0 0 0.6,-2.19 v -7.55 c 0,-0.09 0,-0.11 -0.12,-0.13 a 7.57,7.57 0 0 0 -2.6,0 h -0.14 v 3.66 a 3.42,3.42 0 0 1 -0.09,0.76 1.29,1.29 0 0 1 -0.52,0.83 0.67,0.67 0 0 1 -0.62,0.1 A 0.57,0.57 0 0 1 76.07,16.47 2.22,2.22 0 0 1 76,16 v -3.07 a 1.38,1.38 0 0 0 -0.34,-1.1 1.84,1.84 0 0 0 -1.33,-0.56 2.5,2.5 0 0 0 -1.67,0.58 L 72.82,12 a 1.91,1.91 0 0 1 0.49,1.49 v 3.28 a 2.05,2.05 0 0 0 1.23,1.89 2.64,2.64 0 0 0 1.62,0 2.27,2.27 0 0 0 1.39,-1.21 c 0,-0.09 0.08,-0.14 0.13,-0.13 0.05,0.01 0.06,0.09 0.06,0.12 v 2.18 a 1.79,1.79 0 0 1 -1.59,1.74 3,3 0 0 1 -2.29,-0.64 1.94,1.94 0 0 0 -0.33,-0.23 0.1,0.1 0 0 0 -0.07,0 M 52.81,16.33 c -0.5,0 -1.11,0.06 -1.11,-0.89 V 9.23 a 4.33,4.33 0 0 0 -3.6,0.55 c -0.09,0.1 -0.16,0.12 -0.12,0 a 6.28,6.28 0 0 1 1.47,-3 0.35,0.35 0 0 0 0,-0.51 C 49.3,6.13 48.75,5.72 48.6,5.87 a 3.5,3.5 0 0 0 -0.71,1.2 H 47.8 C 47.8,6.86 47.72,6.69 47.71,6.61 47.17,2.74 43.13,2.88 43.13,2.88 c 0,0 -1.13,4.34 2.58,5.18 0.94,0.21 1.89,-0.27 1.8,0.36 0,0.23 -0.16,1 -0.21,1.31 a 0.07,0.07 0 0 1 -0.12,0 4.2,4.2 0 0 0 -3.64,-1.31 c -2.48,0.4 -4.11,3.14 -3.64,6.12 a 6.55,6.55 0 0 0 0.51,1.71 c 0.07,0.16 0.16,0.31 0.24,0.47 a 4.58,4.58 0 0 0 4.57,2.53 4,4 0 0 0 2.3,-1.25 2.46,2.46 0 0 0 2.24,1.12 3.45,3.45 0 0 0 2.24,-0.69 4.8,4.8 0 0 0 1.18,-1.22 c 0.34,-0.61 0.12,-0.85 -0.32,-0.88"
       fill="#ffffff"
       id="path81" />
    <path
       d="m 43.13,15.2 a 2,2 0 0 1 0,-2.82 1.78,1.78 0 0 1 2.56,0 c 1.07,1.2 1.37,4.33 1.37,4.33 0,0 -2.73,-0.18 -3.9,-1.51 m 6.45,-1.12 a 7.24,7.24 0 0 1 -2.32,2.37 6.82,6.82 0 0 1 0,-3.35 1.41,1.41 0 0 1 1.88,-1 c 0.62,0.25 0.92,1 0.49,1.94"
       fill="#ec1c24"
       id="path83" />
    <path
       d="m 51.89,20.75 a 0.26,0.26 0 0 0 -0.26,0.26 v 1.48 L 50.22,20.84 A 0.21,0.21 0 0 0 50.04,20.75 0.25,0.25 0 0 0 49.79,21 v 2.31 a 0.26,0.26 0 0 0 0.26,0.26 0.26,0.26 0 0 0 0.26,-0.26 v -1.47 l 1.38,1.64 a 0.21,0.21 0 0 0 0.18,0.09 0.24,0.24 0 0 0 0.24,-0.24 V 21 A 0.26,0.26 0 0 0 51.85,20.74 M 47.4,20.75 H 46 a 0.27,0.27 0 0 0 -0.27,0.26 v 2.3 A 0.27,0.27 0 0 0 46,23.57 h 1.4 A 0.26,0.26 0 0 0 47.66,23.31 0.27,0.27 0 0 0 47.4,23 h -1.08 v -0.63 h 1 a 0.26,0.26 0 0 0 0.26,-0.26 0.27,0.27 0 0 0 -0.26,-0.27 h -1 v -0.6 h 1.08 a 0.27,0.27 0 0 0 0.26,-0.27 0.26,0.26 0 0 0 -0.26,-0.26 m -3.84,2.12 a 0.29,0.29 0 0 0 -0.36,0 1,1 0 0 1 -0.65,0.24 0.87,0.87 0 0 1 -0.64,-0.25 1,1 0 0 1 0,-1.31 0.83,0.83 0 0 1 0.64,-0.26 0.9,0.9 0 0 1 0.62,0.23 0.26,0.26 0 0 0 0.36,0 0.26,0.26 0 0 0 0,-0.39 1.53,1.53 0 0 0 -1,-0.37 1.43,1.43 0 0 0 -1.45,1.47 1.38,1.38 0 0 0 0.41,1 1.42,1.42 0 0 0 1,0.4 1.56,1.56 0 0 0 1,-0.37 0.27,0.27 0 0 0 0,-0.4 m 12.68,-2.07 h -1.65 a 0.26,0.26 0 0 0 -0.26,0.26 0.27,0.27 0 0 0 0.26,0.27 h 0.54 v 2 a 0.26,0.26 0 0 0 0.26,0.26 0.26,0.26 0 0 0 0.26,-0.26 v -2 h 0.54 a 0.26,0.26 0 0 0 0.26,-0.27 0.26,0.26 0 0 0 -0.26,-0.26 m 13.56,0 a 0.23,0.23 0 0 0 -0.2,0.11 l -1,1.49 -1,-1.49 A 0.23,0.23 0 0 0 67.28,20.75 0.25,0.25 0 0 0 67,21 v 2.31 a 0.26,0.26 0 0 0 0.26,0.26 0.26,0.26 0 0 0 0.26,-0.26 V 22 l 0.72,1 a 0.23,0.23 0 0 0 0.39,0 l 0.72,-1 v 1.34 a 0.26,0.26 0 0 0 0.26,0.26 0.26,0.26 0 0 0 0.26,-0.26 V 21 a 0.25,0.25 0 0 0 -0.24,-0.25 m -9.06,0.89 A 0.88,0.88 0 0 0 60.33,21.01 1,1 0 0 0 59.61,20.75 H 58.8 a 0.26,0.26 0 0 0 -0.26,0.26 v 2.3 a 0.26,0.26 0 0 0 0.26,0.26 0.26,0.26 0 0 0 0.26,-0.26 v -0.77 h 0.34 l 0.51,0.9 a 0.26,0.26 0 0 0 0.23,0.13 0.27,0.27 0 0 0 0.23,-0.4 l -0.44,-0.7 a 0.84,0.84 0 0 0 0.57,-0.83 m -1,0.4 h -0.4 v -0.77 h 0.51 a 0.37,0.37 0 0 1 0.39,0.38 0.39,0.39 0 0 1 -0.44,0.39 m 5.05,-1.29 a 0.26,0.26 0 0 0 -0.26,0.26 v 1.49 a 0.53,0.53 0 1 1 -1,0 V 21 A 0.26,0.26 0 0 0 63.09,20.74 H 63.04 A 0.26,0.26 0 0 0 62.78,21 v 1.53 a 1,1 0 0 0 0.31,0.81 1.17,1.17 0 0 0 0.79,0.27 1.14,1.14 0 0 0 0.78,-0.27 1,1 0 0 0 0.31,-0.81 V 21 A 0.26,0.26 0 0 0 64.71,20.74 M 28.94,8.39 a 1.27,1.27 0 0 0 -1.4,1.07 1.27,1.27 0 0 0 1.4,1.07 1.28,1.28 0 0 0 1.41,-1.07 1.28,1.28 0 0 0 -1.41,-1.07 m -23.41,9.9 a 32.69,32.69 0 0 0 4,0.31 7.89,7.89 0 0 0 2.83,-0.54 4.48,4.48 0 0 0 1.53,-1 3.53,3.53 0 0 0 0.89,-1.86 8.11,8.11 0 0 0 0.15,-1.4 A 8.19,8.19 0 0 0 14.68,11.97 4.55,4.55 0 0 0 11.42,8.54 7.62,7.62 0 0 0 8.91,8.24 8.48,8.48 0 0 0 6.45,8.74 7.39,7.39 0 0 0 5.13,9.44 C 4.95,9.59 4.97,9.65 5.04,9.83 a 1.47,1.47 0 0 1 0.07,0.17 12.52,12.52 0 0 1 0.57,2.76 21.44,21.44 0 0 1 0.1,2.71 25.41,25.41 0 0 1 -0.2,2.85 M 9.3,16.64 H 8.72 v -6.45 a 2.55,2.55 0 0 1 1.72,0.29 2.48,2.48 0 0 1 1.05,1.38 5.1,5.1 0 0 1 0,3.32 3.21,3.21 0 0 1 -0.5,0.89 1.55,1.55 0 0 1 -1.21,0.56 3.93,3.93 0 0 1 -0.48,0 m 12.97,-3.39 a 1.73,1.73 0 0 0 -0.43,-1 2.71,2.71 0 0 0 -0.79,-0.63 3.51,3.51 0 0 0 -1.71,-0.4 5.7,5.7 0 0 0 -0.8,0.06 3.22,3.22 0 0 0 -2.54,1.78 3.89,3.89 0 0 0 -0.37,1.84 3.94,3.94 0 0 0 0.46,1.7 l 0.09,0.15 a 0.71,0.71 0 0 0 0.1,0.14 3.59,3.59 0 0 0 2.38,1.33 3.47,3.47 0 0 0 2.58,-0.63 2.38,2.38 0 0 0 0.89,-1.24 0.58,0.58 0 0 0 0,-0.4 L 22,16 a 4.72,4.72 0 0 1 -0.51,0.25 3.54,3.54 0 0 1 -1.5,0.36 3.66,3.66 0 0 1 -0.57,-0.05 1.86,1.86 0 0 1 -0.85,-0.4 1.19,1.19 0 0 1 -0.4,-0.71 v -0.06 h 0.43 l 0.82,0.06 a 3.38,3.38 0 0 0 2,-0.52 1.85,1.85 0 0 0 0.82,-1.36 v -0.05 a 2.72,2.72 0 0 0 0,-0.28 m -2.54,0.32 a 1.42,1.42 0 0 1 -0.62,0.52 3.11,3.11 0 0 1 -1,0.17 2,2 0 0 1 0.38,-1.38 0.82,0.82 0 0 1 0.95,-0.22 0.62,0.62 0 0 1 0.26,0.91 m 42.25,-2.35 a 6,6 0 0 0 -0.81,0.06 3.22,3.22 0 0 0 -2.57,1.78 3.78,3.78 0 0 0 -0.37,1.84 3.94,3.94 0 0 0 0.46,1.7 l 0.09,0.15 a 1.71,1.71 0 0 0 0.11,0.14 3.59,3.59 0 0 0 2.38,1.33 3.48,3.48 0 0 0 2.58,-0.63 2.38,2.38 0 0 0 0.89,-1.24 v -0.4 c 0,-0.04 0,0 -0.07,0 a 4.72,4.72 0 0 1 -0.51,0.25 3.54,3.54 0 0 1 -1.5,0.36 3.66,3.66 0 0 1 -0.57,-0.05 1.82,1.82 0 0 1 -0.85,-0.4 1.19,1.19 0 0 1 -0.4,-0.71 v -0.06 h 0.43 l 0.82,0.06 a 3.38,3.38 0 0 0 2,-0.52 1.85,1.85 0 0 0 0.82,-1.36 v -0.05 a 2.72,2.72 0 0 0 0,-0.28 1.91,1.91 0 0 0 -0.43,-1 2.85,2.85 0 0 0 -0.79,-0.63 3.51,3.51 0 0 0 -1.71,-0.4 m -1.24,3.15 a 2,2 0 0 1 0.38,-1.41 0.84,0.84 0 0 1 1,-0.24 0.65,0.65 0 0 1 0.28,1 1.62,1.62 0 0 1 -0.65,0.55 3.06,3.06 0 0 1 -1,0.17 z M 23,8.45 v 8.35 a 2.23,2.23 0 0 0 0.06,0.42 1.31,1.31 0 0 0 0.42,0.72 1.42,1.42 0 0 0 0.77,0.36 2.62,2.62 0 0 0 1.25,-0.14 2.35,2.35 0 0 0 1.12,-0.8 c 0,-0.08 0.18,-0.27 0.14,-0.35 -0.04,-0.08 0,0 -0.11,-0.05 A 1.3,1.3 0 0 1 25.9,16.68 1.07,1.07 0 0 1 25.54,15.79 V 8.52 A 0.37,0.37 0 0 0 25.49,8.27 0.18,0.18 0 0 0 25.35,8.27 11.67,11.67 0 0 0 23,8.45 m 5.87,2.91 a 7.37,7.37 0 0 0 -1.13,0.09 c -0.16,0 -0.2,0.08 -0.2,0.24 v 5.06 a 2.4,2.4 0 0 0 0.06,0.43 1.38,1.38 0 0 0 0.42,0.72 1.66,1.66 0 0 0 0.78,0.36 2.62,2.62 0 0 0 1.25,-0.14 2.36,2.36 0 0 0 1.14,-0.81 c 0.06,-0.08 0.19,-0.27 0.15,-0.35 -0.04,-0.08 -0.05,-0.05 -0.12,-0.05 a 1.41,1.41 0 0 1 -0.75,-0.28 1.12,1.12 0 0 1 -0.37,-0.9 v -1.86 -2.15 c 0,-0.18 0,-0.24 -0.23,-0.27 a 6.8,6.8 0 0 0 -1,-0.08 m 3.2,-3.48 v 9.89 c 0,0.19 0,0.26 0.23,0.29 a 6.91,6.91 0 0 0 2.13,0 c 0.18,0 0.21,-0.09 0.21,-0.26 v -3.19 l 0.09,0.2 a 10.81,10.81 0 0 0 1.69,2.72 1.88,1.88 0 0 0 0.78,0.52 1.71,1.71 0 0 0 1,0 2.14,2.14 0 0 0 1.39,-1.44 c 0,-0.18 0.06,-0.3 0,-0.36 C 39.53,16.2 39.46,16.2 39.34,16.2 A 2.36,2.36 0 0 1 37.67,15.6 3.38,3.38 0 0 1 36.84,14.17 L 37,14 a 3.34,3.34 0 0 0 0.85,-0.72 2.08,2.08 0 0 0 0.42,-1.51 1.11,1.11 0 0 0 -0.64,-0.88 3.19,3.19 0 0 0 -1.41,-0.33 0.18,0.18 0 0 0 -0.13,0 0.18,0.18 0 0 0 0,0.1 v 0.35 a 2.57,2.57 0 0 1 -1.4,2.7 l -0.08,0.05 V 13.67 8.22 c 0,-0.19 0,-0.24 -0.21,-0.26 H 34.14 A 19.57,19.57 0 0 0 32.04,7.85 M 53.89,9.4 v 7.36 a 2.23,2.23 0 0 0 0.06,0.42 1.31,1.31 0 0 0 0.42,0.72 1.42,1.42 0 0 0 0.77,0.36 2.56,2.56 0 0 0 1.24,-0.14 2.37,2.37 0 0 0 1.13,-0.8 c 0.06,-0.08 0.19,-0.27 0.15,-0.35 -0.04,-0.08 -0.05,0 -0.12,-0.05 a 1.37,1.37 0 0 1 -0.72,-0.26 1.09,1.09 0 0 1 -0.39,-0.84 v -3.36 h 1.12 v -1 h -1.1 V 9.41 c 0,-0.1 0,-0.21 -0.05,-0.26 a 0.2,0.2 0 0 0 -0.13,0 9.84,9.84 0 0 0 -2.38,0.29 m 12.97,6.35 A 1.76,1.76 0 0 0 66,16 a 1,1 0 0 0 -0.47,0.75 1,1 0 0 0 0.32,0.77 2.66,2.66 0 0 0 0.76,0.47 5.71,5.71 0 0 0 2,0.39 6.54,6.54 0 0 0 1.23,-0.11 3,3 0 0 0 1.6,-0.75 A 1.6,1.6 0 0 0 71.32,15 2.9,2.9 0 0 0 70.7,14.64 L 70,14.33 69.13,14 c -0.27,-0.11 -1.09,-0.45 -0.89,-1.07 a 0.61,0.61 0 0 1 0.31,-0.36 1.05,1.05 0 0 1 0.84,0 2.21,2.21 0 0 1 1.2,1.27 1.53,1.53 0 0 0 0.74,-0.16 1,1 0 0 0 0.44,-0.46 0.93,0.93 0 0 0 0.06,-0.62 c -0.1,-0.5 -0.53,-0.76 -1.14,-1 a 5.43,5.43 0 0 0 -2.55,-0.27 3.29,3.29 0 0 0 -1.65,0.63 1.85,1.85 0 0 0 -0.82,1.42 1.54,1.54 0 0 0 1,1.61 12.11,12.11 0 0 0 1.47,0.6 l 0.4,0.15 h 0.06 a 1.65,1.65 0 0 1 0.86,0.55 0.49,0.49 0 0 1 0,0.41 0.74,0.74 0 0 1 -0.49,0.36 1.14,1.14 0 0 1 -0.55,0 A 2,2 0 0 1 67,15.83 h -0.08"
       fill="#ffffff"
       id="path85" />
  </g>
</svg>
